<?xml version="1.0" encoding="utf-8"?>
<!-- Generator: Adobe Illustrator 25.3.1, SVG Export Plug-In . SVG Version: 6.00 Build 0)  -->
<svg version="1.1" id="Layer_1" xmlns="http://www.w3.org/2000/svg" xmlns:xlink="http://www.w3.org/1999/xlink" x="0px" y="0px"
	 viewBox="0 0 36 40" style="enable-background:new 0 0 36 40;" xml:space="preserve">
<style type="text/css">
	.st0{fill:#FF8282;}
	.st1{fill:#FFFFFF;}
</style>
<g>
	<path class="st0" d="M33.05,40H2.95C1.32,40,0,38.68,0,37.05V2.95C0,1.32,1.32,0,2.95,0h30.09C34.68,0,36,1.32,36,2.95v34.09
		C36,38.68,34.68,40,33.05,40z"/>
</g>
<path class="st1" d="M30,32H6c-1.1,0-2-0.9-2-2v0c0-1.1,0.9-2,2-2h24c1.1,0,2,0.9,2,2v0C32,31.1,31.1,32,30,32z"/>
</svg>
