<?xml version="1.0" encoding="utf-8"?>
<!-- Generator: Adobe Illustrator 25.3.1, SVG Export Plug-In . SVG Version: 6.00 Build 0)  -->
<svg version="1.1" id="Layer_1" xmlns="http://www.w3.org/2000/svg" xmlns:xlink="http://www.w3.org/1999/xlink" x="0px" y="0px"
	 viewBox="0 0 74 60" style="enable-background:new 0 0 74 60;" xml:space="preserve">
<style type="text/css">
	.st0{fill:#BCADAD;}
	.st1{fill:#FF8282;}
</style>
<path class="st0" d="M71,22H3c-1.66,0-3-1.34-3-3v0c0-1.66,1.34-3,3-3h68c1.66,0,3,1.34,3,3v0C74,20.66,72.66,22,71,22z"/>
<path class="st0" d="M71,38H3c-1.66,0-3-1.34-3-3v0c0-1.66,1.34-3,3-3h68c1.66,0,3,1.34,3,3v0C74,36.66,72.66,38,71,38z"/>
<path class="st0" d="M71,6H3C1.34,6,0,4.66,0,3v0c0-1.66,1.34-3,3-3l68,0c1.66,0,3,1.34,3,3v0C74,4.66,72.66,6,71,6z"/>
<path class="st1" d="M36,6H3C1.34,6,0,4.66,0,3v0c0-1.66,1.34-3,3-3h33c1.66,0,3,1.34,3,3v0C39,4.66,37.66,6,36,6z"/>
<path class="st1" d="M48,22H3c-1.66,0-3-1.34-3-3v0c0-1.66,1.34-3,3-3h45c1.66,0,3,1.34,3,3v0C51,20.66,49.66,22,48,22z"/>
<path class="st1" d="M30,38H3c-1.66,0-3-1.34-3-3v0c0-1.66,1.34-3,3-3h27c1.66,0,3,1.34,3,3v0C33,36.66,31.66,38,30,38z"/>
<path class="st0" d="M47,60H27c-1.66,0-3-1.34-3-3v0c0-1.66,1.34-3,3-3h20c1.66,0,3,1.34,3,3v0C50,58.66,48.66,60,47,60z"/>
</svg>
